<svg id="suit_svg" xmlns="http://www.w3.org/2000/svg" xmlns:xlink="http://www.w3.org/1999/xlink" viewBox="0 0 706 2048">
  <g id="suit_basic" data-feature="suit">
    <image id="layer0" class="suit-img"  width="533" height="1892" transform="translate(85 81)" xlink:href="images/suit1.png"/>
  </g>
  <g id="suit_pockets" data-feature="pockets">
    <image id="layer2" class="suit-img" width="368" height="60" transform="translate(167 751)" xlink:href="images/suit2.png"/>
  </g>
  <g id="suit_lapel" data-feature="lapel">
    <image id="layer4"  class="suit-img" width="483" height="373" transform="translate(118 236)" xlink:href="images/suit4.png"/>
  </g>
  <g id="suit_tie" data-feature="tie">
    <image id="layer6"  class="suit-img" width="70" height="348" transform="translate(321 251)" xlink:href="images/suit6.png"/>
  </g>
  <g id="suit_bowtie" data-feature="bowtie">
    <image id="layer7" class="suit-img" width="135" height="69" transform="translate(293 253)" xlink:href="images/suit7.png"/>
  </g>
    <g id="suit_pocketsquare" data-feature="pocketsquare">
    <image id="layer5" class="suit-img" width="62" height="38" transform="translate(442 408)" xlink:href="images/suit5.png"/>
  </g>
    <g id="suit_buttons" data-feature="buttons">
    <image id="layer3" class="suit-img" width="52" height="26" transform="translate(333 771)" xlink:href="images/suit3.png"/>
  </g>

  <g id="pants" class="g-interact">
    <path d="M244,1052h91c7.76-.64,25.55-5.58,36-2,4.64,1.59,9.65,2,17,2,20.26,0,58.41-4.1,74,2a14.17,14.17,0,0,1,1,4c-4.42,5-2.08,23.23-2,32a219.12,219.12,0,0,0,6,46c3,11.84-1.16,21.23,2,33,7.93,29.57,6.05,65.18,14,95v16c.81,3.28,3,11.13,4,14v20c1.28,5.19,2.64,16.91,4,22v18c4.09,16.6,2,40.08,6,56v17c4.4,16.74,1.73,41,6,57v32c3.84,16,4,48,0,64-3.8,15.28,2.5,30.7-4,42-2.62,4.56-7.44,5.07-15,5-6.59-4.43-18.72.31-28-2-13.57-3.38-32.76-2.72-46-6H396c-13.89-3.71-30.47-2.27-44-5-2.31-.47-6.9,1.63-9,1-1.52-.46-1.9-3.47-3-4h-8c-10.25-2.66-25.46-3.46-35-6H280c-8.58-2.28-22.06-3.59-31-6h-9c-11.42-3.07-23.91-5.9-38-6-4.26-6.94-3.15-21.59-3-33,4.2-7.08.87-27.51,3-37,6.19-27.55,3.65-56.43,10-84,9.59-41.65,7.54-89.28,17-132v-18c.92-6.13,1.72-15.21,3-21v-17c4.49-20.47,2.39-47.14,7-68v-23C245.94,1128.15,244.42,1086.58,244,1052Z" fill="none" fill-rule="evenodd"/>
  </g>
  <g id="shirt" class="g-interact">
    <path d="M617,941c-22.34-.16-50-2.1-69,2-4.11,12.34-1.08,40-1,55-18.26,11.79-59,24.9-88,25-13.09,0-31.11,2.16-41-2-11.36-4.78-23.55-18.06-30-28l-6-14H368c-4,12.09-1.07,46.51-1,62,2.27,2.31,2.87,4.35,3,9H339c.2-5.59,2-6.79,3-10,2.57-8.31.51-52.08-1-60-4.36-1.49-12.07-1.08-18-1-1.07.75-.95.6-3,1-2.86,17.5-27.35,38.6-44,43H260a207.08,207.08,0,0,1-59-8c-12.9-3.59-41.53-7-46-17V944c-.8-1-.35-.27-1-2h-4c-3.49-2.19-12.72-1-18-1H86c-.12-23.49-3.58-56.94,1-78,2-9-.7-21.19,1-29,3.48-16-1.14-33.58,2-48V751c1.84-8.45-1.11-21.31,1-31,3.53-16.17.48-36.83,4-53V642c7.75-35.51.28-79.87,8-115,3.37-15.33-1.27-28,2-43,1.8-8.27-.13-18.44,2-28,6.26-28.11,5.53-61.73,12-89,3-12.5,1.46-23,6-34,9.64-23.42,26.58-23.15,50-32,25.55-9.66,53.63-21.12,76-34,13.23-7.62,25.72-11.47,30-28h2c1,11.24,4.79,18.46,7,27v20c2,7.86,3.79,21.2,6,30v12c11.92,46.67,19.92,98.19,32,144v12c2.18,7.5,5.88,19.78,8,28,1.59,6.17-.29,10.79,2,16,.25.58,2.75,2.2,3,3-.33,3-.67,6-1,9,1,3.59,6,6.4,7,10,1.38,5.11-3.31,6.6-2,10,2.06,7.46,8.25,13.79,17,12v-2c5.25-8,3.16-19.6,6-30,.93-3.42,3.9-7,5-10q.5-7,1-14c2.2-8.67,5.91-18.1,8-26,1.83-6.92-.09-13,1-18,.63-2.91,4.1-5.15,5-8,6.06-19.14,4.89-40,10-60,7.47-29.25,8.45-63.48,16-94,3.6-14.57-1.71-31.05,2-46,2-8.08,3.93-15.34,4-27h2v1c5.43,6.43,7.15,15,14,20,21.76,15.86,50,26.58,77,37,14.82,5.72,53.08,13.51,60,25,17,28.19,12.63,74.05,22,110v28c1.26,5.18,2.67,16.92,4,22v24c4.92,20.18.77,48,6,68,2.91,11.16-.33,27.06,2,36v29c2.59,9.93,2,26,2,39v15c2.09,8,2,21,2,32v33c2.25,9.26,2,23.76,2,36v15c4,15.29,2,39.37,2,58C615,889.46,617,914.28,617,941Z" fill="none" fill-rule="evenodd"/>
    <path d="M524,537c-.75,6.75-4.17,12.8-6,19-2.59,8.77-3,19.7-5,28v14c-7.39,31.22,1.68,91.94,10,116,3.33,9.62,2.1,36.67,9,41V729c-4.14-6.84.91-21.18-1-30-3-13.77-1-33.42-1-49q-1-32-2-64C528,572.6,531.93,541.41,524,537Z" fill="none" fill-rule="evenodd"/>
    <path d="M178,540c.25,70-5.76,136.62-6,206h2c.36-11.45,5.66-17.25,8-26q.5-14,1-28c.28-1,2.78-3.43,3-4,2.57-6.72.16-12.41,2-20,4-16.61,4.31-69.51,0-86C185.4,572,184.57,544.17,178,540Z" fill="none" fill-rule="evenodd"/>
  </g>
  <g id="pockets" class="g-interact">
    <path d="M174,752a85.84,85.84,0,0,1,20,2c11.33,2.75,26.92-.2,36,2,6.53,1.58,15.56-.08,21,1,1.91,5.64,1.08,15.69,1,23-4.69,7.25-1.75,25.57-10,29-6.83,4.51-22.2-1.57-28-3-26.13-6.45-46,6.47-46-28V766c.78-3.07,2.17-8.27,3-12A10.92,10.92,0,0,0,174,752Z" fill="none" fill-rule="evenodd"/>
    <path d="M514,754c3.47-.13,8-.33,10,1,5.32,1.69,6.57,5.6,10,9-.08,12.91-.35,27.66,1,39-10.16,6.53-28.37,7-45,7-5.27,0-14.53,1.2-18-1-5.06-1.73-5.78-5.6-9-9,0-14.29-3-30.43-1-42h2C475.43,750.79,503,761.73,514,754Z" fill="none" fill-rule="evenodd"/>
  </g>
  <g id="biglapel" class="g-interact">
    <path d="M269,238h10v1h1c2.54,21,7.36,42.58,12,62,3.09,12.94.48,24.1,4,36,15.59,52.74,24.58,112.78,38,166,5.8,23,7.5,44.53,14,66,2.12,7-.27,17,7,19,3.76-8.54,7-21.58,10-31,1.84-5.8,0-9.63,2-15,.87-2.37,4-4.78,5-7q1-8.5,2-17c1.43-5,4.61-12,6-17v-9c21.11-75.13,37.24-162,43-247,13.54-2.64,33.48,2.2,44,6,22.08,8,40.79,13.49,58,26,9.08,6.6,16.08,17.34,25,24,10.78,8.05,31.88,23.56,32,41-6.19,2.84-15.9,4.29-23,7v2c4.59,3,22.66,24.51,23,31-7.35,3.55-9.65,9.67-15,15-8.1,8.07-16,15.75-23,25l-11,10c-1.33,1.8-1.34,4.61-3,6-20.47,17.14-38.89,35.57-61,51l-10,11c-6.18,4.67-12.65,9.48-18,15l-3,5c-7.1,6-14.57,10.45-22,16l-11,13c-11,11-24.61,21.49-34,34-3.76,5-7.05,14.29-12,18-2.86,2.15-6.44,2.87-9,5-10.46-10.58-18.66-23.28-29-34-7.18-7.44-15.67-13.7-23-21l-12-14c-13.94-10.48-25.28-22.63-39-33l-10-11c-12.53-9.33-25.94-18.14-37-29-7.83-7.69-15.26-17.37-24-24-15.52-11.77-28.14-29.46-41-44-4.05-4.57-14.37-10.9-15-18,5.1-3.85,21.37-21.9,23-28h-1v-1c-6.62-.77-13.47-2.62-21-3-1.22-2.28-1.64-2.25-2-6,4.09-5.19,4.25-12.37,7-19,4.33-10.42,10.34-26.64,19-33,25.53-18.74,56.06-30.09,88-43,7.66-3.1,17.82-4.23,25-6C261.86,238.05,266.37,239.65,269,238Z" fill="none" fill-rule="evenodd"/>
  </g>
  <g id="pocketsquare" class="g-interact">
    <path d="M504,437c-6,.4-9.42,2.82-14,4-12.94,3.34-29.56,3.82-44,4,.33-1.67.67-3.33,1-5,4.59-1.56,7.27-5.83,11-8,2.9-1.69,5.29-1.24,8-3,9-5.84,20.63-16.61,33-18v2C503,418.59,504,427.79,504,437Z" fill="none" fill-rule="evenodd"/>
  </g>
  <g id="buttons" class="g-interact">
    <path d="M352,650a33.79,33.79,0,0,1,8,1c1.74,3.47,2.85,4.36,3,10-1.24,1.84-1.09,5.7-1,9-2.6,1.76-5,4.41-8,3-6.74-2-9.25-7.86-9-17Z" fill="none" fill-rule="evenodd"/>
    <path d="M348,796l-10-1c-2.33-3.48-7.44-12.17-5-17,1.05-3.42,3.7-6.77,7-8,2.24-1.4,3.28-.55,6,0v16C347.77,788.39,348,791.78,348,796Z" fill="none" fill-rule="evenodd"/>
  </g>
  <g id="bowtie" class="g-interact">
    <path d="M306,254a67.65,67.65,0,0,1,32,11c12.62,8.62,4.43,16.75,29,17,1.35-4.79,6.51-15.16,11-17,6.22-4.15,25.1-10.29,37-8,4.8,17.2,16.52,32.76,8,56-1.31,3.58,0,5.13-3,7-10.13,6.5-41.11-5.44-46-9-2.3-1.68-3.73-6.67-6-8l-22-1c-5.42,15.19-32.87,17.59-52,13V276C298.93,269.88,301.89,260.56,306,254Z" fill="none" fill-rule="evenodd"/>
  </g>
  <g id="tie" class="g-interact">
    <path d="M384,268c-6.38,0-9.31,1.72-14,3-10.1,21.58,5.52,27.16,10,45,3.31,13.19.91,31.36,4,44v42c8.55,35.81-.68,77.1-8,104l-3,24c-1,2.87-4.16,7.13-5,10-2.86,9.76-1.41,16.57-4,26l-6,16c-1.49,5.81.7,11-2,15-1.29.88-2.47.89-5,1-1.37-2.54-1.92-3.5-2-8,4-6.2-1.87-12.29-3-16-1.19-3.89,1.73-6.59,1-9-2.13-7-8.83-19-7-29,1.08-5.88-2.47-10.13-4-16-2.73-10.5-.93-17.61-4-28-.7-2.37-3.3-5.34-4-8-3.16-12,0-25,0-40,0-25.94-3.55-59.63,2-82V328c.87-3.54,1.19-11.8,3-16,2-4.73,6.77-9.41,9-14,1.68-3.45,3.36-12.11,1-16-1.62-4.87-8.82-14.53-13-17-3.31-1.95-7.8.16-10-3h1c5.67-17.55,56.46-10.2,62,3C383.75,266.07,383.6,266,384,268Z" fill="none" fill-rule="evenodd"/>
  </g>
</svg>
